SRRun01_grf
version=1
nRows=37
nColumns=19
inDegrees=no
endheader
time	ground_force_r_vx	ground_force_r_vy	ground_force_r_vz	ground_force_r_px	ground_force_r_py	ground_force_r_pz	ground_force_r_mx	ground_force_r_my	ground_force_r_mz	ground_force_l_vx	ground_force_l_vy	ground_force_l_vz	ground_force_l_px	ground_force_l_py	ground_force_l_pz	ground_force_l_mx	ground_force_l_my	ground_force_l_mz
    144.99800000	      0.00000000	      0.00000000	      0.00000000	      0.00000000	      0.00000000	      0.00000000	      0.00000000	      0.00000000	      0.00000000	    -14.30482139	   1766.31563584	    -25.91274155	      0.80944305	      0.00000000	     -0.31787803	      0.00002025	      3.88434949	      0.00006988
    144.99900000	      0.00000000	      0.00000000	      0.00000000	      0.00000000	      0.00000000	      0.00000000	      0.00000000	      0.00000000	      0.00000000	     -9.46063416	   1760.74724713	    -21.46969016	      0.80683572	      0.00000000	     -0.31765424	      0.00002029	      4.72106527	      0.00007149
    145.00000000	      0.00000000	      0.00000000	      0.00000000	      0.00000000	      0.00000000	      0.00000000	      0.00000000	      0.00000000	      0.00000000	     -3.87303127	   1755.02007522	    -15.62445388	      0.80429485	      0.00000000	     -0.31742198	      0.00002043	      4.85660756	      0.00007249
    145.00100000	      0.00000000	      0.00000000	      0.00000000	      0.00000000	      0.00000000	      0.00000000	      0.00000000	      0.00000000	      0.00000000	      2.22892374	   1749.17732081	     -8.82791581	      0.80184341	      0.00000000	     -0.31719410	      0.00002070	      4.31586587	      0.00007270
    145.00200000	      0.00000000	      0.00000000	      0.00000000	      0.00000000	      0.00000000	      0.00000000	      0.00000000	      0.00000000	      0.00000000	      8.58010842	   1743.24747844	     -1.58220604	      0.79949132	      0.00000000	     -0.31698391	      0.00002110	      3.18381760	      0.00007201
    145.00300000	      0.00000000	      0.00000000	      0.00000000	      0.00000000	      0.00000000	      0.00000000	      0.00000000	      0.00000000	      0.00000000	     14.90814133	   1737.24139226	      5.59860915	      0.79723581	      0.00000000	     -0.31680405	      0.00002164	      1.59648933	      0.00007039
    145.00400000	      0.00000000	      0.00000000	      0.00000000	      0.00000000	      0.00000000	      0.00000000	      0.00000000	      0.00000000	      0.00000000	     20.96243391	   1731.15230703	     12.22816137	      0.79506383	      0.00000000	     -0.31666521	      0.00002236	     -0.27262458	      0.00006790
    145.00500000	      0.00000000	      0.00000000	      0.00000000	      0.00000000	      0.00000000	      0.00000000	      0.00000000	      0.00000000	      0.00000000	     26.54025556	   1724.95894276	     17.88437968	      0.79295594	      0.00000000	     -0.31657503	      0.00002325	     -2.22944650	      0.00006467
    145.00600000	      0.00000000	      0.00000000	      0.00000000	      0.00000000	      0.00000000	      0.00000000	      0.00000000	      0.00000000	      0.00000000	     31.50684638	   1718.63066074	     22.23987601	      0.79089088	      0.00000000	     -0.31653714	      0.00002432	     -4.07802740	      0.00006092
    145.00700000	      0.00000000	      0.00000000	      0.00000000	      0.00000000	      0.00000000	      0.00000000	      0.00000000	      0.00000000	      0.00000000	     35.80732577	   1712.13310971	     25.08337392	      0.78884964	      0.00000000	     -0.31655068	      0.00002556	     -5.63952530	      0.00005689
    145.00800000	      0.00000000	      0.00000000	      0.00000000	      0.00000000	      0.00000000	      0.00000000	      0.00000000	      0.00000000	      0.00000000	     39.46916127	   1705.43277255	     26.33026278	      0.78681795	      0.00000000	     -0.31661034	      0.00002694	     -6.76983466	      0.00005285
    145.00900000	      0.00000000	      0.00000000	      0.00000000	      0.00000000	      0.00000000	      0.00000000	      0.00000000	      0.00000000	      0.00000000	     42.59509273	   1698.49949537	     26.02158067	      0.78478690	      0.00000000	     -0.31670708	      0.00002841	     -7.37414997	      0.00004910
    145.01000000	      0.00000000	      0.00000000	      0.00000000	      0.00000000	      0.00000000	      0.00000000	      0.00000000	      0.00000000	      0.00000000	     45.34753529	   1691.30697751	     24.31215351	      0.78275186	      0.00000000	     -0.31682931	      0.00002989	     -7.41673363	      0.00004588
    145.01100000	      0.00000000	      0.00000000	      0.00000000	      0.00000000	      0.00000000	      0.00000000	      0.00000000	      0.00000000	      0.00000000	     47.92651400	   1683.83187817	     21.44990163	      0.78071018	      0.00000000	     -0.31696440	      0.00003127	     -6.92447220	      0.00004343
    145.01200000	      0.00000000	      0.00000000	      0.00000000	      0.00000000	      0.00000000	      0.00000000	      0.00000000	      0.00000000	      0.00000000	     50.54395772	   1676.05232934	     17.74911239	      0.77865851	      0.00000000	     -0.31710026	      0.00003247	     -5.98349922	      0.00004192
    145.01300000	      0.00000000	      0.00000000	      0.00000000	      0.00000000	      0.00000000	      0.00000000	      0.00000000	      0.00000000	      0.00000000	     53.39757382	   1667.94633826	     13.56065362	      0.77659051	      0.00000000	     -0.31722659	      0.00003335	     -4.72910222	      0.00004143
    145.01400000	      0.00000000	      0.00000000	      0.00000000	      0.00000000	      0.00000000	      0.00000000	      0.00000000	      0.00000000	      0.00000000	     56.64749570	   1659.49036952	      9.24185917	      0.77449535	      0.00000000	     -0.31733572	      0.00003383	     -3.33010322	      0.00004202
    145.01500000	      0.00000000	      0.00000000	      0.00000000	      0.00000000	      0.00000000	      0.00000000	      0.00000000	      0.00000000	      0.00000000	     60.39847185	   1650.65869369	      5.12844169	      0.77235763	      0.00000000	     -0.31742298	      0.00003383	     -1.96963703	      0.00004364
    145.01600000	      0.00000000	      0.00000000	      0.00000000	      0.00000000	      0.00000000	      0.00000000	      0.00000000	      0.00000000	      0.00000000	     64.68961025	   1641.42445905	      1.51040898	      0.77015893	      0.00000000	     -0.31748663	      0.00003331	     -0.82455136	      0.00004619
    145.01700000	      0.00000000	      0.00000000	      0.00000000	      0.00000000	      0.00000000	      0.00000000	      0.00000000	      0.00000000	      0.00000000	     69.49262577	   1631.76318257	     -1.38646528	      0.76788121	      0.00000000	     -0.31752738	      0.00003227	     -0.04560415	      0.00004948
    145.01800000	      0.00000000	      0.00000000	      0.00000000	      0.00000000	      0.00000000	      0.00000000	      0.00000000	      0.00000000	      0.00000000	     74.71827268	   1621.65838921	     -3.41261675	      0.76551137	      0.00000000	     -0.31754779	      0.00003074	      0.25946800	      0.00005328
    145.01900000	      0.00000000	      0.00000000	      0.00000000	      0.00000000	      0.00000000	      0.00000000	      0.00000000	      0.00000000	      0.00000000	     80.22949804	   1611.10798937	     -4.49984063	      0.76304583	      0.00000000	     -0.31755141	      0.00002879	      0.03804788	      0.00005730
    145.02000000	      0.00000000	      0.00000000	      0.00000000	      0.00000000	      0.00000000	      0.00000000	      0.00000000	      0.00000000	      0.00000000	     85.85910772	   1600.12930162	     -4.66011185	      0.76049342	      0.00000000	     -0.31754196	      0.00002653	     -0.70166618	      0.00006121
    145.02100000	      0.00000000	      0.00000000	      0.00000000	      0.00000000	      0.00000000	      0.00000000	      0.00000000	      0.00000000	      0.00000000	     91.42945210	   1588.76082360	     -3.97904570	      0.75787569	      0.00000000	     -0.31752259	      0.00002409	     -1.89213102	      0.00006470
    145.02200000	      0.00000000	      0.00000000	      0.00000000	      0.00000000	      0.00000000	      0.00000000	      0.00000000	      0.00000000	      0.00000000	     96.77173617	   1577.05990755	     -2.60502218	      0.75522435	      0.00000000	     -0.31749547	      0.00002160	     -3.41483640	      0.00006745
    145.02300000	      0.00000000	      0.00000000	      0.00000000	      0.00000000	      0.00000000	      0.00000000	      0.00000000	      0.00000000	      0.00000000	    101.74295639	   1565.09685949	     -0.73486543	      0.75257628	      0.00000000	     -0.31746156	      0.00001920	     -5.11435948	      0.00006923
    145.02400000	      0.00000000	      0.00000000	      0.00000000	      0.00000000	      0.00000000	      0.00000000	      0.00000000	      0.00000000	      0.00000000	    106.23903396	   1552.94694168	      1.40303606	      0.74996757	      0.00000000	     -0.31742080	      0.00001702	     -6.81615453	      0.00006989
    145.02500000	      0.00000000	      0.00000000	      0.00000000	      0.00000000	      0.00000000	      0.00000000	      0.00000000	      0.00000000	      0.00000000	    110.20328846	   1540.68195597	      3.56710437	      0.74742772	      0.00000000	     -0.31737248	      0.00001516	     -8.34582308	      0.00006936
    145.02600000	      0.00000000	      0.00000000	      0.00000000	      0.00000000	      0.00000000	      0.00000000	      0.00000000	      0.00000000	      0.00000000	    113.62990030	   1528.36270042	      5.52119578	      0.74497518	      0.00000000	     -0.31731588	      0.00001370	     -9.54770572	      0.00006772
    145.02700000	      0.00000000	      0.00000000	      0.00000000	      0.00000000	      0.00000000	      0.00000000	      0.00000000	      0.00000000	      0.00000000	    116.56245005	   1516.03308906	      7.05222796	      0.74261465	      0.00000000	     -0.31725091	      0.00001268	    -10.30096539	      0.00006511
    145.02800000	      0.00000000	      0.00000000	      0.00000000	      0.00000000	      0.00000000	      0.00000000	      0.00000000	      0.00000000	      0.00000000	    119.08799633	   1503.71647701	      7.98575914	      0.74033668	      0.00000000	     -0.31717861	      0.00001212	    -10.53166774	      0.00006178
    145.02900000	      0.00000000	      0.00000000	      0.00000000	      0.00000000	      0.00000000	      0.00000000	      0.00000000	      0.00000000	      0.00000000	    121.32740306	   1491.41472197	      8.19870960	      0.73811959	      0.00000000	     -0.31710132	      0.00001200	    -10.21968766	      0.00005800
    145.03000000	      0.00000000	      0.00000000	      0.00000000	      0.00000000	      0.00000000	      0.00000000	      0.00000000	      0.00000000	      0.00000000	    123.42276960	   1479.11030300	      7.62856411	      0.73593378	      0.00000000	     -0.31702255	      0.00001229	     -9.39976008	      0.00005409
    145.03100000	      0.00000000	      0.00000000	      0.00000000	      0.00000000	      0.00000000	      0.00000000	      0.00000000	      0.00000000	      0.00000000	    125.52299588	   1466.77114439	      6.27840925	      0.73374767	      0.00000000	     -0.31694648	      0.00001293	     -8.15673714	      0.00005030
    145.03200000	      0.00000000	      0.00000000	      0.00000000	      0.00000000	      0.00000000	      0.00000000	      0.00000000	      0.00000000	      0.00000000	    127.76872076	   1454.35700365	      4.21711894	      0.73153375	      0.00000000	     -0.31687720	      0.00001386	     -6.61590504	      0.00004687
    145.03300000	      0.00000000	      0.00000000	      0.00000000	      0.00000000	      0.00000000	      0.00000000	      0.00000000	      0.00000000	      0.00000000	    130.27796148	   1441.82597291	      1.57409219	      0.72927326	      0.00000000	     -0.31681791	      0.00001499	     -4.92978785	      0.00004395
    145.03400000	      0.00000000	      0.00000000	      0.00000000	      0.00000000	      0.00000000	      0.00000000	      0.00000000	      0.00000000	      0.00000000	    133.13375464	   1429.13995036	     -1.47163004	      0.72695839	      0.00000000	     -0.31677020	      0.00001626	     -3.26312682	      0.00004162
